# Blender v3.2.1 OBJ File: ''
# www.blender.org
mtllib SimplificationTestMesh2.mtl
o Chunk0.001
v -0.825837 0.999998 -0.646842
v -0.409692 0.046743 0.353158
v -0.409692 0.999998 -0.185102
v -0.435626 -0.000002 0.353158
v -0.409692 -0.000002 0.372168
v 0.590308 0.941960 0.353158
v -0.409692 0.046743 0.353158
v 0.590308 -0.000002 0.744248
vn -0.6948 0.3536 0.6262
vn -0.6741 0.3740 0.6370
vn -0.5617 0.3117 0.7664
vn -0.4029 0.4500 0.7970
vn -0.3196 0.3570 0.8778
vn -0.3250 0.3626 0.8734
usemtl Default_OBJ.001
s off
f 1//1 2//1 3//1
f 4//2 2//2 1//2
f 2//3 4//3 5//3
f 3//4 7//4 6//4
f 5//5 6//5 7//5
f 5//6 8//6 6//6
